<svg width="40" height="40" viewBox="0 0 40 40" fill="none" xmlns="http://www.w3.org/2000/svg">
<path d="M34.1164 3.33333H5.88311C5.56574 3.32892 5.25061 3.38708 4.95571 3.50447C4.66082 3.62187 4.39194 3.7962 4.16443 4.01752C3.93692 4.23884 3.75524 4.50281 3.62976 4.79435C3.50428 5.08589 3.43745 5.3993 3.43311 5.71667V34.2833C3.43745 34.6007 3.50428 34.9141 3.62976 35.2056C3.75524 35.4972 3.93692 35.7612 4.16443 35.9825C4.39194 36.2038 4.66082 36.3781 4.95571 36.4955C5.25061 36.6129 5.56574 36.6711 5.88311 36.6667H34.1164C34.4338 36.6711 34.7489 36.6129 35.0438 36.4955C35.3387 36.3781 35.6076 36.2038 35.8351 35.9825C36.0626 35.7612 36.2443 35.4972 36.3698 35.2056C36.4953 34.9141 36.5621 34.6007 36.5664 34.2833V5.71667C36.5621 5.3993 36.4953 5.08589 36.3698 4.79435C36.2443 4.50281 36.0626 4.23884 35.8351 4.01752C35.6076 3.7962 35.3387 3.62187 35.0438 3.50447C34.7489 3.38708 34.4338 3.32892 34.1164 3.33333ZM13.4831 31.2333H8.48311V16.2333H13.4831V31.2333ZM10.9831 14.1333C10.2935 14.1333 9.63222 13.8594 9.14463 13.3718C8.65703 12.8842 8.38311 12.2229 8.38311 11.5333C8.38311 10.8438 8.65703 10.1824 9.14463 9.69486C9.63222 9.20726 10.2935 8.93333 10.9831 8.93333C11.3493 8.89181 11.7201 8.92809 12.0712 9.0398C12.4224 9.15152 12.746 9.33615 13.0209 9.5816C13.2957 9.82706 13.5156 10.1278 13.6662 10.4641C13.8168 10.8005 13.8946 11.1648 13.8946 11.5333C13.8946 11.9018 13.8168 12.2662 13.6662 12.6025C13.5156 12.9389 13.2957 13.2396 13.0209 13.4851C12.746 13.7305 12.4224 13.9151 12.0712 14.0269C11.7201 14.1386 11.3493 14.1749 10.9831 14.1333ZM31.5164 31.2333H26.5164V23.1833C26.5164 21.1667 25.7998 19.85 23.9831 19.85C23.4209 19.8541 22.8734 20.0305 22.4145 20.3553C21.9556 20.6801 21.6072 21.1378 21.4164 21.6667C21.286 22.0584 21.2295 22.471 21.2498 22.8833V31.2167H16.2498C16.2498 31.2167 16.2498 17.5833 16.2498 16.2167H21.2498V18.3333C21.704 17.5452 22.3646 16.8959 23.1605 16.4553C23.9564 16.0148 24.8574 15.7998 25.7664 15.8333C29.0998 15.8333 31.5164 17.9833 31.5164 22.6V31.2333Z" fill="black"/>
</svg>
