<svg width="113" height="113" viewBox="0 0 113 113" fill="none" xmlns="http://www.w3.org/2000/svg">
<path d="M102.685 27.072C99.1766 28.5941 95.4663 29.6002 91.6697 30.0592C95.6752 27.6663 98.6769 23.9017 100.118 19.4638C96.3538 21.7046 92.2333 23.2833 87.9357 24.1314C85.063 21.0161 81.2377 18.9424 77.0595 18.2356C72.8813 17.5287 68.5867 18.2286 64.8492 20.2255C61.1117 22.2225 58.1427 25.4035 56.4078 29.2696C54.673 33.1358 54.2704 37.4685 55.2632 41.5882C47.6525 41.2032 40.2079 39.2215 33.413 35.7717C26.6181 32.3219 20.6249 27.4813 15.8228 21.5642C14.1385 24.5056 13.2534 27.8366 13.2557 31.2261C13.2497 34.3739 14.0221 37.4742 15.5043 40.2512C16.9864 43.0282 19.1321 45.3956 21.7505 47.1426C18.7072 47.0598 15.7289 46.2431 13.069 44.7621V44.9955C13.0918 49.4059 14.6372 53.673 17.4439 57.075C20.2505 60.4771 24.1461 62.8053 28.4717 63.6658C26.8066 64.1726 25.0779 64.4398 23.3375 64.4593C22.1327 64.4453 20.931 64.336 19.7435 64.1326C20.9753 67.9265 23.359 71.242 26.5631 73.6179C29.7671 75.9937 33.632 77.3118 37.62 77.3885C30.8858 82.6875 22.5714 85.5795 14.0025 85.6035C12.4423 85.6086 10.8833 85.5151 9.33496 85.3234C18.0839 90.9724 28.2795 93.9712 38.6935 93.9584C45.8801 94.0331 53.0094 92.675 59.6652 89.9634C66.3209 87.2518 72.3697 83.2411 77.4581 78.1657C82.5465 73.0902 86.5726 67.0517 89.3012 60.4028C92.0298 53.7539 93.4062 46.6279 93.35 39.4411C93.35 38.6476 93.35 37.8074 93.35 36.9673C97.0125 34.2358 100.171 30.8874 102.685 27.072Z" fill="black"/>
</svg>
